<svg width="36" height="36" viewBox="0 0 36 36" fill="none" xmlns="http://www.w3.org/2000/svg">
<path d="M10.2163 0.0127866L0 0.0325904V17.889V35.7454H2.53202H5.05726V29.3158V22.8796L8.77722 22.8532C12.3139 22.8334 12.5243 22.8201 13.1692 22.6815C14.5269 22.3911 16.0746 21.7705 17.0046 21.1566C17.5273 20.8134 18.4573 19.9618 18.3826 19.9024C18.3555 19.876 17.9346 19.6383 17.4458 19.3743C16.4344 18.8264 15.2397 18.0804 14.6966 17.6514C14.4929 17.4863 14.2893 17.3345 14.2486 17.3081C14.201 17.2817 13.9159 17.3807 13.6037 17.5193C13.2914 17.6646 12.8502 17.8296 12.6262 17.889C12.0492 18.0408 10.6033 18.0804 7.62322 18.021L5.05726 17.9748V11.3868V4.8053L8.57358 4.7657C10.5014 4.73929 14.4997 4.71949 17.4458 4.71949C23.243 4.71949 23.467 4.73269 24.7025 5.08256C25.999 5.44563 26.8001 5.92752 27.7436 6.8913C28.9859 8.15874 29.6987 9.55161 29.8141 10.9379L29.8548 11.4528H32.3664H34.8781L34.8306 10.7068C34.5794 6.8649 32.4343 3.61047 28.7551 1.50467C27.6554 0.870951 26.4063 0.461672 24.6414 0.158014C23.6299 -0.0136184 23.6571 -0.0136184 10.2163 0.0127866Z" fill="#7A56F6" style="fill:#7A56F6;fill:color(display-p3 0.4784 0.3373 0.9647);fill-opacity:1;"/>
<path d="M13.3118 6.69327C13.2846 6.72627 13.21 6.94411 13.1421 7.17516C12.4768 9.28096 12.5243 11.3604 13.2846 13.1955C13.8548 14.5884 15.0971 15.8954 16.9842 17.0969C18.2672 17.9088 20.2494 18.7274 24.4038 20.173C25.5782 20.5757 26.8815 21.051 27.2888 21.216C29.9227 22.2987 30.9884 23.6717 30.9884 25.969C30.9884 29.0781 28.7483 31.0057 24.9469 31.1641C23.019 31.25 21.3898 30.8737 20.0525 30.0419C19.3533 29.5996 18.3894 28.6425 17.9957 27.9889C17.6495 27.408 17.3847 26.6819 17.3101 26.0878L17.2693 25.7115H14.6898H12.1103L12.151 26.0218C12.4089 27.9295 12.8638 29.2432 13.7123 30.5634C16.0542 34.1875 20.0797 36.1613 24.8111 35.9897C26.8136 35.9171 28.7144 35.455 30.5472 34.5836C32.2714 33.765 34.1178 31.9101 35.0478 30.0617C35.6655 28.8273 35.9371 27.6655 35.9914 26.0284C36.0796 23.5265 35.4958 21.7111 34.0092 19.8694C33.2218 18.899 32.251 18.087 31.131 17.4599C29.8751 16.7668 28.6465 16.2849 24.6414 14.9514C21.6274 13.9481 21.1862 13.7764 20.2969 13.2879C19.3941 12.7862 19.0547 12.5486 18.6134 12.1261C17.8803 11.433 17.6223 10.8191 17.568 9.67044C17.5205 8.62084 17.6223 8.18515 18.274 6.71307C18.3012 6.65366 17.7852 6.63386 15.8302 6.63386C14.4047 6.63386 13.3321 6.66026 13.3118 6.69327Z" fill="#A085DC" style="fill:#A085DC;fill:color(display-p3 0.6275 0.5216 0.8627);fill-opacity:1;"/>
</svg>
